<svg width="1127" height="1512" viewBox="0 0 1127 1512" fill="none" xmlns="http://www.w3.org/2000/svg">
<rect x="967" y="15" width="20" height="20" fill="#FF3131"/>
<rect x="987" y="15" width="20" height="20" fill="#FF3131"/>
<rect x="947" y="35" width="20" height="20" fill="#FF3131"/>
<rect x="947" y="55" width="20" height="20" fill="#FF3131"/>
<rect x="967" y="75" width="20" height="20" fill="#FF3131"/>
<rect x="987" y="55" width="20" height="20" fill="#FF3131"/>
<rect x="1007" y="15" width="20" height="20" fill="#FF3131"/>
<rect x="1027" y="35" width="20" height="20" fill="#FF3131"/>
<rect x="1027" y="55" width="20" height="20" fill="#FF3131"/>
<rect x="1067" y="35" width="20" height="20" fill="#FF3131"/>
<rect x="1087" y="35" width="20" height="20" fill="#FF3131"/>
<rect x="1067" y="55" width="20" height="20" fill="#FF3131"/>
<rect x="1087" y="55" width="20" height="20" fill="#FF3131"/>
<rect x="1107" y="15" width="20" height="20" fill="#FF3131"/>
<rect x="1027" y="75" width="20" height="20" fill="#FF3131"/>
<rect width="20" height="20" transform="matrix(4.37114e-08 -1 -1 -4.37114e-08 1127 175)" fill="#FF3131"/>
<rect width="20" height="20" transform="matrix(4.37114e-08 -1 -1 -4.37114e-08 1127 155)" fill="#FF3131"/>
<rect width="20" height="20" transform="matrix(4.37114e-08 -1 -1 -4.37114e-08 1107 195)" fill="#FF3131"/>
<rect width="20" height="20" transform="matrix(4.37114e-08 -1 -1 -4.37114e-08 1087 195)" fill="#FF3131"/>
<rect width="20" height="20" transform="matrix(4.37114e-08 -1 -1 -4.37114e-08 1067 175)" fill="#FF3131"/>
<rect width="20" height="20" transform="matrix(4.37114e-08 -1 -1 -4.37114e-08 1087 155)" fill="#FF3131"/>
<rect width="20" height="20" transform="matrix(4.37114e-08 -1 -1 -4.37114e-08 1127 135)" fill="#FF3131"/>
<rect width="20" height="20" transform="matrix(4.37114e-08 -1 -1 -4.37114e-08 1107 115)" fill="#FF3131"/>
<rect width="20" height="20" transform="matrix(4.37114e-08 -1 -1 -4.37114e-08 1087 115)" fill="#FF3131"/>
<rect width="20" height="20" transform="matrix(4.37114e-08 -1 -1 -4.37114e-08 1067 115)" fill="#FF3131"/>
<rect width="20" height="20" transform="matrix(4.37114e-08 -1 -1 -4.37114e-08 1047 115)" fill="#FF3131"/>
<rect width="20" height="20" transform="matrix(4.37114e-08 -1 -1 -4.37114e-08 1047 115)" fill="#FF3131"/>
<rect width="20" height="20" transform="matrix(4.37114e-08 -1 -1 -4.37114e-08 1027 135)" fill="#FF3131"/>
<rect width="20" height="20" transform="matrix(4.37114e-08 -1 -1 -4.37114e-08 1007 155)" fill="#FF3131"/>
<rect width="20" height="20" transform="matrix(4.37114e-08 -1 -1 -4.37114e-08 987 155)" fill="#FF3131"/>
<rect width="20" height="20" transform="matrix(4.37114e-08 -1 -1 -4.37114e-08 987 175)" fill="#FF3131"/>
<rect width="20" height="20" transform="matrix(4.37114e-08 -1 -1 -4.37114e-08 970 175)" fill="#FF3131"/>
<rect width="20" height="20" transform="matrix(4.37114e-08 -1 -1 -4.37114e-08 1007 175)" fill="#FF3131"/>
<rect width="20" height="20" transform="matrix(4.37114e-08 -1 -1 -4.37114e-08 1027 195)" fill="#FF3131"/>
<rect width="20" height="20" transform="matrix(4.37114e-08 -1 -1 -4.37114e-08 967 139)" fill="#FF3131"/>
<rect width="20" height="20" transform="matrix(4.37114e-08 -1 -1 -4.37114e-08 990 195)" fill="#FF3131"/>
<rect width="20" height="20" transform="matrix(4.37114e-08 -1 -1 -4.37114e-08 950 195)" fill="#FF3131"/>
<rect width="20" height="20" transform="matrix(4.37114e-08 -1 -1 -4.37114e-08 930 175)" fill="#FF3131"/>
<rect width="20" height="20" transform="matrix(4.37114e-08 -1 -1 -4.37114e-08 930 155)" fill="#FF3131"/>
<rect width="20" height="20" transform="matrix(4.37114e-08 -1 -1 -4.37114e-08 990 235)" fill="#FF3131"/>
<rect width="20" height="20" transform="matrix(4.37114e-08 -1 -1 -4.37114e-08 1010 235)" fill="#FF3131"/>
<rect width="20" height="20" transform="matrix(4.37114e-08 -1 -1 -4.37114e-08 970 215)" fill="#FF3131"/>
<rect width="20" height="20" transform="matrix(-5.18986e-09 1 1 5.18986e-09 747 60)" fill="#FF3131"/>
<rect width="20" height="20" transform="matrix(-5.18986e-09 1 1 5.18986e-09 727 40)" fill="#FF3131"/>
<rect width="20" height="20" transform="matrix(-5.18986e-09 1 1 5.18986e-09 707 60)" fill="#FF3131"/>
<rect width="20" height="20" transform="matrix(-1 0 0 1 1047 200)" fill="#FF3131"/>
<rect width="20" height="20" transform="matrix(-1 0 0 1 1047 220)" fill="#FF3131"/>
<rect width="20" height="20" transform="matrix(-1 0 0 1 1047 240)" fill="#FF3131"/>
<rect width="20" height="20" transform="matrix(-5.18986e-09 1 1 5.18986e-09 907 80)" fill="#FF3131"/>
<rect width="20" height="20" transform="matrix(-5.18986e-09 1 1 5.18986e-09 887 80)" fill="#FF3131"/>
<rect width="20" height="20" transform="matrix(-5.18986e-09 1 1 5.18986e-09 867 80)" fill="#FF3131"/>
<rect width="20" height="20" transform="matrix(-5.18986e-09 1 1 5.18986e-09 927 80)" fill="#FF3131"/>
<rect width="20" height="20" transform="matrix(-5.18986e-09 1 1 5.18986e-09 927 100)" fill="#FF3131"/>
<rect width="20" height="20" transform="matrix(-1 0 0 1 1047 280)" fill="#FF3131"/>
<rect width="20" height="20" transform="matrix(-1 0 0 1 1047 300)" fill="#FF3131"/>
<rect width="20" height="20" transform="matrix(-1 0 0 1 1047 320)" fill="#FF3131"/>
<rect width="20" height="20" transform="matrix(-1 0 0 1 1047 340)" fill="#FF3131"/>
<rect x="1027" y="360" width="20" height="20" fill="#FF3131"/>
<rect x="1027" y="520" width="20" height="20" fill="#FF3131"/>
<rect x="80" y="520" width="20" height="20" fill="#FF3131"/>
<rect x="1027" y="967" width="20" height="20" fill="#FF3131"/>
<rect x="80" y="967" width="20" height="20" fill="#FF3131"/>
<rect x="1027" y="380" width="20" height="20" fill="#FF3131"/>
<rect width="20" height="20" transform="matrix(-5.18986e-09 1 1 5.18986e-09 807 80)" fill="#FF3131"/>
<rect width="20" height="20" transform="matrix(-5.18986e-09 1 1 5.18986e-09 787 80)" fill="#FF3131"/>
<rect width="20" height="20" transform="matrix(-5.18986e-09 1 1 5.18986e-09 767 80)" fill="#FF3131"/>
<rect width="20" height="20" transform="matrix(-5.18986e-09 1 1 5.18986e-09 827 80)" fill="#FF3131"/>
<rect width="20" height="20" transform="matrix(-5.18986e-09 1 1 5.18986e-09 847 80)" fill="#FF3131"/>
<rect width="20" height="20" transform="matrix(-1 0 0 1 160 15)" fill="#FF3131"/>
<rect width="20" height="20" transform="matrix(-1 0 0 1 140 15)" fill="#FF3131"/>
<rect width="20" height="20" transform="matrix(-1 0 0 1 180 35)" fill="#FF3131"/>
<rect width="20" height="20" transform="matrix(-1 0 0 1 180 55)" fill="#FF3131"/>
<rect width="20" height="20" transform="matrix(-1 0 0 1 160 75)" fill="#FF3131"/>
<rect width="20" height="20" transform="matrix(-1 0 0 1 140 55)" fill="#FF3131"/>
<rect width="20" height="20" transform="matrix(-1 0 0 1 120 15)" fill="#FF3131"/>
<rect width="20" height="20" transform="matrix(-1 0 0 1 100 35)" fill="#FF3131"/>
<rect width="20" height="20" transform="matrix(-1 0 0 1 100 55)" fill="#FF3131"/>
<rect width="20" height="20" transform="matrix(-1 0 0 1 60 35)" fill="#FF3131"/>
<rect width="20" height="20" transform="matrix(-1 0 0 1 40 35)" fill="#FF3131"/>
<rect width="20" height="20" transform="matrix(-1 0 0 1 60 55)" fill="#FF3131"/>
<rect width="20" height="20" transform="matrix(-1 0 0 1 40 55)" fill="#FF3131"/>
<rect width="20" height="20" transform="matrix(-1 0 0 1 20 15)" fill="#FF3131"/>
<rect width="20" height="20" transform="matrix(-1 0 0 1 100 75)" fill="#FF3131"/>
<rect y="175" width="20" height="20" transform="rotate(-90 0 175)" fill="#FF3131"/>
<rect y="155" width="20" height="20" transform="rotate(-90 0 155)" fill="#FF3131"/>
<rect x="20" y="195" width="20" height="20" transform="rotate(-90 20 195)" fill="#FF3131"/>
<rect x="40" y="195" width="20" height="20" transform="rotate(-90 40 195)" fill="#FF3131"/>
<rect x="60" y="175" width="20" height="20" transform="rotate(-90 60 175)" fill="#FF3131"/>
<rect x="40" y="155" width="20" height="20" transform="rotate(-90 40 155)" fill="#FF3131"/>
<rect y="135" width="20" height="20" transform="rotate(-90 0 135)" fill="#FF3131"/>
<rect x="20" y="115" width="20" height="20" transform="rotate(-90 20 115)" fill="#FF3131"/>
<rect x="40" y="115" width="20" height="20" transform="rotate(-90 40 115)" fill="#FF3131"/>
<rect x="60" y="115" width="20" height="20" transform="rotate(-90 60 115)" fill="#FF3131"/>
<rect x="80" y="115" width="20" height="20" transform="rotate(-90 80 115)" fill="#FF3131"/>
<rect x="80" y="115" width="20" height="20" transform="rotate(-90 80 115)" fill="#FF3131"/>
<rect x="100" y="135" width="20" height="20" transform="rotate(-90 100 135)" fill="#FF3131"/>
<rect x="120" y="155" width="20" height="20" transform="rotate(-90 120 155)" fill="#FF3131"/>
<rect x="140" y="155" width="20" height="20" transform="rotate(-90 140 155)" fill="#FF3131"/>
<rect x="140" y="175" width="20" height="20" transform="rotate(-90 140 175)" fill="#FF3131"/>
<rect x="157" y="175" width="20" height="20" transform="rotate(-90 157 175)" fill="#FF3131"/>
<rect x="120" y="175" width="20" height="20" transform="rotate(-90 120 175)" fill="#FF3131"/>
<rect x="100" y="195" width="20" height="20" transform="rotate(-90 100 195)" fill="#FF3131"/>
<rect x="160" y="139" width="20" height="20" transform="rotate(-90 160 139)" fill="#FF3131"/>
<rect x="137" y="195" width="20" height="20" transform="rotate(-90 137 195)" fill="#FF3131"/>
<rect x="177" y="195" width="20" height="20" transform="rotate(-90 177 195)" fill="#FF3131"/>
<rect x="197" y="175" width="20" height="20" transform="rotate(-90 197 175)" fill="#FF3131"/>
<rect x="197" y="155" width="20" height="20" transform="rotate(-90 197 155)" fill="#FF3131"/>
<rect x="137" y="235" width="20" height="20" transform="rotate(-90 137 235)" fill="#FF3131"/>
<rect x="117" y="235" width="20" height="20" transform="rotate(-90 117 235)" fill="#FF3131"/>
<rect x="157" y="215" width="20" height="20" transform="rotate(-90 157 215)" fill="#FF3131"/>
<rect x="380" y="60" width="20" height="20" transform="rotate(90 380 60)" fill="#FF3131"/>
<rect x="400" y="40" width="20" height="20" transform="rotate(90 400 40)" fill="#FF3131"/>
<rect x="420" y="60" width="20" height="20" transform="rotate(90 420 60)" fill="#FF3131"/>
<rect x="504" y="80" width="20" height="20" transform="rotate(90 504 80)" fill="#FF3131"/>
<rect x="664" y="80" width="20" height="20" transform="rotate(90 664 80)" fill="#FF3131"/>
<rect x="584" y="60" width="20" height="20" transform="rotate(90 584 60)" fill="#FF3131"/>
<rect x="584" y="40" width="20" height="20" transform="rotate(90 584 40)" fill="#FF3131"/>
<rect x="564" y="40" width="20" height="20" transform="rotate(90 564 40)" fill="#FF3131"/>
<rect x="604" y="40" width="20" height="20" transform="rotate(90 604 40)" fill="#FF3131"/>
<rect x="544" y="60" width="20" height="20" transform="rotate(90 544 60)" fill="#FF3131"/>
<rect x="624" y="60" width="20" height="20" transform="rotate(90 624 60)" fill="#FF3131"/>
<rect x="584" y="20" width="20" height="20" transform="rotate(90 584 20)" fill="#FF3131"/>
<rect x="524" y="60" width="20" height="20" transform="rotate(90 524 60)" fill="#FF3131"/>
<rect x="644" y="60" width="20" height="20" transform="rotate(90 644 60)" fill="#FF3131"/>
<rect x="584" width="20" height="20" transform="rotate(90 584 0)" fill="#FF3131"/>
<rect x="80" y="200" width="20" height="20" fill="#FF3131"/>
<rect x="80" y="220" width="20" height="20" fill="#FF3131"/>
<rect x="80" y="240" width="20" height="20" fill="#FF3131"/>
<rect x="220" y="80" width="20" height="20" transform="rotate(90 220 80)" fill="#FF3131"/>
<rect x="240" y="80" width="20" height="20" transform="rotate(90 240 80)" fill="#FF3131"/>
<rect x="260" y="80" width="20" height="20" transform="rotate(90 260 80)" fill="#FF3131"/>
<rect x="200" y="80" width="20" height="20" transform="rotate(90 200 80)" fill="#FF3131"/>
<rect x="200" y="100" width="20" height="20" transform="rotate(90 200 100)" fill="#FF3131"/>
<rect x="80" y="280" width="20" height="20" fill="#FF3131"/>
<rect x="80" y="300" width="20" height="20" fill="#FF3131"/>
<rect x="80" y="320" width="20" height="20" fill="#FF3131"/>
<rect x="80" y="340" width="20" height="20" fill="#FF3131"/>
<rect width="20" height="20" transform="matrix(-1 0 0 1 100 360)" fill="#FF3131"/>
<rect width="20" height="20" transform="matrix(-1 0 0 1 100 380)" fill="#FF3131"/>
<rect x="320" y="80" width="20" height="20" transform="rotate(90 320 80)" fill="#FF3131"/>
<rect x="340" y="80" width="20" height="20" transform="rotate(90 340 80)" fill="#FF3131"/>
<rect x="360" y="80" width="20" height="20" transform="rotate(90 360 80)" fill="#FF3131"/>
<rect width="20" height="20" transform="matrix(1 2.3597e-08 2.3597e-08 -1 60 460)" fill="#FF3131"/>
<rect width="20" height="20" transform="matrix(1 2.3597e-08 2.3597e-08 -1 40 480)" fill="#FF3131"/>
<rect width="20" height="20" transform="matrix(1 2.3597e-08 2.3597e-08 -1 60 500)" fill="#FF3131"/>
<rect width="20" height="20" transform="matrix(1 2.3597e-08 2.3597e-08 -1 79.9998 420)" fill="#FF3131"/>
<rect width="20" height="20" transform="matrix(1 2.3597e-08 2.3597e-08 -1 80 440)" fill="#FF3131"/>
<rect x="60" y="1052" width="20" height="20" fill="#FF3131"/>
<rect x="40" y="1032" width="20" height="20" fill="#FF3131"/>
<rect x="60" y="1012" width="20" height="20" fill="#FF3131"/>
<rect width="20" height="20" transform="matrix(-1 2.3597e-08 2.3597e-08 1 1047 1052)" fill="#FF3131"/>
<rect x="79.9998" y="1092" width="20" height="20" fill="#FF3131"/>
<rect x="80" y="1072" width="20" height="20" fill="#FF3131"/>
<rect x="1067" y="460" width="20" height="20" transform="rotate(180 1067 460)" fill="#FF3131"/>
<rect x="1087" y="480" width="20" height="20" transform="rotate(180 1087 480)" fill="#FF3131"/>
<rect x="1067" y="500" width="20" height="20" transform="rotate(180 1067 500)" fill="#FF3131"/>
<rect x="1047" y="440" width="20" height="20" transform="rotate(180 1047 440)" fill="#FF3131"/>
<rect width="20" height="20" transform="matrix(-1 2.3597e-08 2.3597e-08 1 1067 1052)" fill="#FF3131"/>
<rect width="20" height="20" transform="matrix(-1 2.3597e-08 2.3597e-08 1 1087 1032)" fill="#FF3131"/>
<rect width="20" height="20" transform="matrix(-1 2.3597e-08 2.3597e-08 1 1067 1012)" fill="#FF3131"/>
<rect width="20" height="20" transform="matrix(-1 2.3597e-08 2.3597e-08 1 1047 1072)" fill="#FF3131"/>
<rect width="20" height="20" transform="matrix(1 2.3597e-08 2.3597e-08 -1 1027 420)" fill="#FF3131"/>
<rect width="20" height="20" transform="matrix(1 2.3597e-08 2.3597e-08 -1 1027 440)" fill="#FF3131"/>
<rect x="1027" y="1092" width="20" height="20" fill="#FF3131"/>
<rect x="1027" y="1072" width="20" height="20" fill="#FF3131"/>
<rect x="300" y="80" width="20" height="20" transform="rotate(90 300 80)" fill="#FF3131"/>
<rect x="280" y="80" width="20" height="20" transform="rotate(90 280 80)" fill="#FF3131"/>
<rect width="20" height="20" transform="matrix(1 0 0 -1 967 1497)" fill="#FF3131"/>
<rect width="20" height="20" transform="matrix(1 0 0 -1 987 1497)" fill="#FF3131"/>
<rect width="20" height="20" transform="matrix(1 0 0 -1 947 1477)" fill="#FF3131"/>
<rect width="20" height="20" transform="matrix(1 0 0 -1 947 1457)" fill="#FF3131"/>
<rect width="20" height="20" transform="matrix(1 0 0 -1 967 1437)" fill="#FF3131"/>
<rect width="20" height="20" transform="matrix(1 0 0 -1 987 1457)" fill="#FF3131"/>
<rect width="20" height="20" transform="matrix(1 0 0 -1 1007 1497)" fill="#FF3131"/>
<rect width="20" height="20" transform="matrix(1 0 0 -1 1027 1477)" fill="#FF3131"/>
<rect width="20" height="20" transform="matrix(1 0 0 -1 1027 1457)" fill="#FF3131"/>
<rect width="20" height="20" transform="matrix(1 0 0 -1 1067 1477)" fill="#FF3131"/>
<rect width="20" height="20" transform="matrix(1 0 0 -1 1087 1477)" fill="#FF3131"/>
<rect width="20" height="20" transform="matrix(1 0 0 -1 1067 1457)" fill="#FF3131"/>
<rect width="20" height="20" transform="matrix(1 0 0 -1 1087 1457)" fill="#FF3131"/>
<rect width="20" height="20" transform="matrix(1 0 0 -1 1107 1497)" fill="#FF3131"/>
<rect width="20" height="20" transform="matrix(1 0 0 -1 1027 1437)" fill="#FF3131"/>
<rect x="1127" y="1337" width="20" height="20" transform="rotate(90 1127 1337)" fill="#FF3131"/>
<rect x="1127" y="1357" width="20" height="20" transform="rotate(90 1127 1357)" fill="#FF3131"/>
<rect x="1107" y="1317" width="20" height="20" transform="rotate(90 1107 1317)" fill="#FF3131"/>
<rect x="1087" y="1317" width="20" height="20" transform="rotate(90 1087 1317)" fill="#FF3131"/>
<rect x="1067" y="1337" width="20" height="20" transform="rotate(90 1067 1337)" fill="#FF3131"/>
<rect x="1087" y="1357" width="20" height="20" transform="rotate(90 1087 1357)" fill="#FF3131"/>
<rect x="1127" y="1377" width="20" height="20" transform="rotate(90 1127 1377)" fill="#FF3131"/>
<rect x="1107" y="1397" width="20" height="20" transform="rotate(90 1107 1397)" fill="#FF3131"/>
<rect x="1087" y="1397" width="20" height="20" transform="rotate(90 1087 1397)" fill="#FF3131"/>
<rect x="1067" y="1397" width="20" height="20" transform="rotate(90 1067 1397)" fill="#FF3131"/>
<rect x="1047" y="1397" width="20" height="20" transform="rotate(90 1047 1397)" fill="#FF3131"/>
<rect x="1047" y="1397" width="20" height="20" transform="rotate(90 1047 1397)" fill="#FF3131"/>
<rect x="1027" y="1377" width="20" height="20" transform="rotate(90 1027 1377)" fill="#FF3131"/>
<rect x="1007" y="1357" width="20" height="20" transform="rotate(90 1007 1357)" fill="#FF3131"/>
<rect x="987" y="1357" width="20" height="20" transform="rotate(90 987 1357)" fill="#FF3131"/>
<rect x="987" y="1337" width="20" height="20" transform="rotate(90 987 1337)" fill="#FF3131"/>
<rect x="970" y="1337" width="20" height="20" transform="rotate(90 970 1337)" fill="#FF3131"/>
<rect x="1007" y="1337" width="20" height="20" transform="rotate(90 1007 1337)" fill="#FF3131"/>
<rect x="1027" y="1317" width="20" height="20" transform="rotate(90 1027 1317)" fill="#FF3131"/>
<rect x="967" y="1373" width="20" height="20" transform="rotate(90 967 1373)" fill="#FF3131"/>
<rect x="990" y="1317" width="20" height="20" transform="rotate(90 990 1317)" fill="#FF3131"/>
<rect x="950" y="1317" width="20" height="20" transform="rotate(90 950 1317)" fill="#FF3131"/>
<rect x="930" y="1337" width="20" height="20" transform="rotate(90 930 1337)" fill="#FF3131"/>
<rect x="930" y="1357" width="20" height="20" transform="rotate(90 930 1357)" fill="#FF3131"/>
<rect x="990" y="1277" width="20" height="20" transform="rotate(90 990 1277)" fill="#FF3131"/>
<rect x="1010" y="1277" width="20" height="20" transform="rotate(90 1010 1277)" fill="#FF3131"/>
<rect x="970" y="1297" width="20" height="20" transform="rotate(90 970 1297)" fill="#FF3131"/>
<rect x="747" y="1452" width="20" height="20" transform="rotate(-90 747 1452)" fill="#FF3131"/>
<rect x="727" y="1472" width="20" height="20" transform="rotate(-90 727 1472)" fill="#FF3131"/>
<rect x="707" y="1452" width="20" height="20" transform="rotate(-90 707 1452)" fill="#FF3131"/>
<rect x="1047" y="1312" width="20" height="20" transform="rotate(-180 1047 1312)" fill="#FF3131"/>
<rect x="1047" y="1292" width="20" height="20" transform="rotate(-180 1047 1292)" fill="#FF3131"/>
<rect x="1047" y="1272" width="20" height="20" transform="rotate(-180 1047 1272)" fill="#FF3131"/>
<rect x="907" y="1432" width="20" height="20" transform="rotate(-90 907 1432)" fill="#FF3131"/>
<rect x="887" y="1432" width="20" height="20" transform="rotate(-90 887 1432)" fill="#FF3131"/>
<rect x="867" y="1432" width="20" height="20" transform="rotate(-90 867 1432)" fill="#FF3131"/>
<rect x="927" y="1432" width="20" height="20" transform="rotate(-90 927 1432)" fill="#FF3131"/>
<rect x="927" y="1412" width="20" height="20" transform="rotate(-90 927 1412)" fill="#FF3131"/>
<rect x="1047" y="1232" width="20" height="20" transform="rotate(-180 1047 1232)" fill="#FF3131"/>
<rect x="1047" y="1212" width="20" height="20" transform="rotate(-180 1047 1212)" fill="#FF3131"/>
<rect x="1047" y="1192" width="20" height="20" transform="rotate(-180 1047 1192)" fill="#FF3131"/>
<rect x="1047" y="1172" width="20" height="20" transform="rotate(-180 1047 1172)" fill="#FF3131"/>
<rect width="20" height="20" transform="matrix(1 0 0 -1 1027 1152)" fill="#FF3131"/>
<rect width="20" height="20" transform="matrix(1 0 0 -1 1027 1132)" fill="#FF3131"/>
<rect x="807" y="1432" width="20" height="20" transform="rotate(-90 807 1432)" fill="#FF3131"/>
<rect x="787" y="1432" width="20" height="20" transform="rotate(-90 787 1432)" fill="#FF3131"/>
<rect x="767" y="1432" width="20" height="20" transform="rotate(-90 767 1432)" fill="#FF3131"/>
<rect x="827" y="1432" width="20" height="20" transform="rotate(-90 827 1432)" fill="#FF3131"/>
<rect x="847" y="1432" width="20" height="20" transform="rotate(-90 847 1432)" fill="#FF3131"/>
<rect x="160" y="1497" width="20" height="20" transform="rotate(-180 160 1497)" fill="#FF3131"/>
<rect x="140" y="1497" width="20" height="20" transform="rotate(-180 140 1497)" fill="#FF3131"/>
<rect x="180" y="1477" width="20" height="20" transform="rotate(-180 180 1477)" fill="#FF3131"/>
<rect x="180" y="1457" width="20" height="20" transform="rotate(-180 180 1457)" fill="#FF3131"/>
<rect x="160" y="1437" width="20" height="20" transform="rotate(-180 160 1437)" fill="#FF3131"/>
<rect x="140" y="1457" width="20" height="20" transform="rotate(-180 140 1457)" fill="#FF3131"/>
<rect x="120" y="1497" width="20" height="20" transform="rotate(-180 120 1497)" fill="#FF3131"/>
<rect x="100" y="1477" width="20" height="20" transform="rotate(-180 100 1477)" fill="#FF3131"/>
<rect x="100" y="1457" width="20" height="20" transform="rotate(-180 100 1457)" fill="#FF3131"/>
<rect x="60" y="1477" width="20" height="20" transform="rotate(-180 60 1477)" fill="#FF3131"/>
<rect x="40" y="1477" width="20" height="20" transform="rotate(-180 40 1477)" fill="#FF3131"/>
<rect x="60" y="1457" width="20" height="20" transform="rotate(-180 60 1457)" fill="#FF3131"/>
<rect x="40" y="1457" width="20" height="20" transform="rotate(-180 40 1457)" fill="#FF3131"/>
<rect x="20" y="1497" width="20" height="20" transform="rotate(-180 20 1497)" fill="#FF3131"/>
<rect x="100" y="1437" width="20" height="20" transform="rotate(-180 100 1437)" fill="#FF3131"/>
<rect width="20" height="20" transform="matrix(-4.37114e-08 1 1 4.37114e-08 0 1337)" fill="#FF3131"/>
<rect width="20" height="20" transform="matrix(-4.37114e-08 1 1 4.37114e-08 0 1357)" fill="#FF3131"/>
<rect width="20" height="20" transform="matrix(-4.37114e-08 1 1 4.37114e-08 20 1317)" fill="#FF3131"/>
<rect width="20" height="20" transform="matrix(-4.37114e-08 1 1 4.37114e-08 40 1317)" fill="#FF3131"/>
<rect width="20" height="20" transform="matrix(-4.37114e-08 1 1 4.37114e-08 60 1337)" fill="#FF3131"/>
<rect width="20" height="20" transform="matrix(-4.37114e-08 1 1 4.37114e-08 40 1357)" fill="#FF3131"/>
<rect width="20" height="20" transform="matrix(-4.37114e-08 1 1 4.37114e-08 0 1377)" fill="#FF3131"/>
<rect width="20" height="20" transform="matrix(-4.37114e-08 1 1 4.37114e-08 20 1397)" fill="#FF3131"/>
<rect width="20" height="20" transform="matrix(-4.37114e-08 1 1 4.37114e-08 40 1397)" fill="#FF3131"/>
<rect width="20" height="20" transform="matrix(-4.37114e-08 1 1 4.37114e-08 60 1397)" fill="#FF3131"/>
<rect width="20" height="20" transform="matrix(-4.37114e-08 1 1 4.37114e-08 80 1397)" fill="#FF3131"/>
<rect width="20" height="20" transform="matrix(-4.37114e-08 1 1 4.37114e-08 80 1397)" fill="#FF3131"/>
<rect width="20" height="20" transform="matrix(-4.37114e-08 1 1 4.37114e-08 100 1377)" fill="#FF3131"/>
<rect width="20" height="20" transform="matrix(-4.37114e-08 1 1 4.37114e-08 120 1357)" fill="#FF3131"/>
<rect width="20" height="20" transform="matrix(-4.37114e-08 1 1 4.37114e-08 140 1357)" fill="#FF3131"/>
<rect width="20" height="20" transform="matrix(-4.37114e-08 1 1 4.37114e-08 140 1337)" fill="#FF3131"/>
<rect width="20" height="20" transform="matrix(-4.37114e-08 1 1 4.37114e-08 157 1337)" fill="#FF3131"/>
<rect width="20" height="20" transform="matrix(-4.37114e-08 1 1 4.37114e-08 120 1337)" fill="#FF3131"/>
<rect width="20" height="20" transform="matrix(-4.37114e-08 1 1 4.37114e-08 100 1317)" fill="#FF3131"/>
<rect width="20" height="20" transform="matrix(-4.37114e-08 1 1 4.37114e-08 160 1373)" fill="#FF3131"/>
<rect width="20" height="20" transform="matrix(-4.37114e-08 1 1 4.37114e-08 137 1317)" fill="#FF3131"/>
<rect width="20" height="20" transform="matrix(-4.37114e-08 1 1 4.37114e-08 177 1317)" fill="#FF3131"/>
<rect width="20" height="20" transform="matrix(-4.37114e-08 1 1 4.37114e-08 197 1337)" fill="#FF3131"/>
<rect width="20" height="20" transform="matrix(-4.37114e-08 1 1 4.37114e-08 197 1357)" fill="#FF3131"/>
<rect width="20" height="20" transform="matrix(-4.37114e-08 1 1 4.37114e-08 137 1277)" fill="#FF3131"/>
<rect width="20" height="20" transform="matrix(-4.37114e-08 1 1 4.37114e-08 117 1277)" fill="#FF3131"/>
<rect width="20" height="20" transform="matrix(-4.37114e-08 1 1 4.37114e-08 157 1297)" fill="#FF3131"/>
<rect width="20" height="20" transform="matrix(5.18986e-09 -1 -1 -5.18986e-09 380 1452)" fill="#FF3131"/>
<rect width="20" height="20" transform="matrix(5.18986e-09 -1 -1 -5.18986e-09 400 1472)" fill="#FF3131"/>
<rect width="20" height="20" transform="matrix(5.18986e-09 -1 -1 -5.18986e-09 420 1452)" fill="#FF3131"/>
<rect width="20" height="20" transform="matrix(5.18986e-09 -1 -1 -5.18986e-09 504 1432)" fill="#FF3131"/>
<rect width="20" height="20" transform="matrix(5.18986e-09 -1 -1 -5.18986e-09 664 1432)" fill="#FF3131"/>
<rect width="20" height="20" transform="matrix(5.18986e-09 -1 -1 -5.18986e-09 584 1452)" fill="#FF3131"/>
<rect width="20" height="20" transform="matrix(5.18986e-09 -1 -1 -5.18986e-09 584 1472)" fill="#FF3131"/>
<rect width="20" height="20" transform="matrix(5.18986e-09 -1 -1 -5.18986e-09 564 1472)" fill="#FF3131"/>
<rect width="20" height="20" transform="matrix(5.18986e-09 -1 -1 -5.18986e-09 604 1472)" fill="#FF3131"/>
<rect width="20" height="20" transform="matrix(5.18986e-09 -1 -1 -5.18986e-09 544 1452)" fill="#FF3131"/>
<rect width="20" height="20" transform="matrix(5.18986e-09 -1 -1 -5.18986e-09 624 1452)" fill="#FF3131"/>
<rect width="20" height="20" transform="matrix(5.18986e-09 -1 -1 -5.18986e-09 584 1492)" fill="#FF3131"/>
<rect width="20" height="20" transform="matrix(5.18986e-09 -1 -1 -5.18986e-09 524 1452)" fill="#FF3131"/>
<rect width="20" height="20" transform="matrix(5.18986e-09 -1 -1 -5.18986e-09 644 1452)" fill="#FF3131"/>
<rect width="20" height="20" transform="matrix(5.18986e-09 -1 -1 -5.18986e-09 584 1512)" fill="#FF3131"/>
<rect width="20" height="20" transform="matrix(1 0 0 -1 80 1312)" fill="#FF3131"/>
<rect width="20" height="20" transform="matrix(1 0 0 -1 80 1292)" fill="#FF3131"/>
<rect width="20" height="20" transform="matrix(1 0 0 -1 80 1272)" fill="#FF3131"/>
<rect width="20" height="20" transform="matrix(5.18986e-09 -1 -1 -5.18986e-09 220 1432)" fill="#FF3131"/>
<rect width="20" height="20" transform="matrix(5.18986e-09 -1 -1 -5.18986e-09 240 1432)" fill="#FF3131"/>
<rect width="20" height="20" transform="matrix(5.18986e-09 -1 -1 -5.18986e-09 260 1432)" fill="#FF3131"/>
<rect width="20" height="20" transform="matrix(5.18986e-09 -1 -1 -5.18986e-09 200 1432)" fill="#FF3131"/>
<rect width="20" height="20" transform="matrix(5.18986e-09 -1 -1 -5.18986e-09 200 1412)" fill="#FF3131"/>
<rect width="20" height="20" transform="matrix(1 0 0 -1 80 1232)" fill="#FF3131"/>
<rect width="20" height="20" transform="matrix(1 0 0 -1 80 1212)" fill="#FF3131"/>
<rect width="20" height="20" transform="matrix(1 0 0 -1 80 1192)" fill="#FF3131"/>
<rect width="20" height="20" transform="matrix(1 0 0 -1 80 1172)" fill="#FF3131"/>
<rect x="100" y="1152" width="20" height="20" transform="rotate(-180 100 1152)" fill="#FF3131"/>
<rect x="100" y="1132" width="20" height="20" transform="rotate(-180 100 1132)" fill="#FF3131"/>
<rect width="20" height="20" transform="matrix(5.18986e-09 -1 -1 -5.18986e-09 320 1432)" fill="#FF3131"/>
<rect width="20" height="20" transform="matrix(5.18986e-09 -1 -1 -5.18986e-09 340 1432)" fill="#FF3131"/>
<rect width="20" height="20" transform="matrix(5.18986e-09 -1 -1 -5.18986e-09 360 1432)" fill="#FF3131"/>
<rect width="20" height="20" transform="matrix(5.18986e-09 -1 -1 -5.18986e-09 300 1432)" fill="#FF3131"/>
<rect width="20" height="20" transform="matrix(5.18986e-09 -1 -1 -5.18986e-09 280 1432)" fill="#FF3131"/>
</svg>
