<svg width="88" height="88" viewBox="0 0 88 88" fill="none" xmlns="http://www.w3.org/2000/svg">
<path d="M44 0C68.3005 0 88 19.6995 88 44C88 68.3005 68.3005 88 44 88C19.6995 88 0 68.3005 0 44C0 19.6995 19.6995 0 44 0ZM44.1274 62.974C44.0537 62.914 43.9463 62.914 43.8726 62.974C32.1446 72.5209 21.1459 77.7945 15.4059 76.4503C15.1797 76.3974 14.9491 76.7773 15.1237 76.9305C22.833 83.6964 32.9367 87.7998 44 87.7998C55.0634 87.7998 65.1667 83.6959 72.876 76.9299C73.0505 76.7767 72.82 76.397 72.5938 76.45C66.8539 77.7941 55.8554 72.5209 44.1274 62.974ZM25.4129 44.3472C25.3326 44.2495 25.1828 44.2502 25.1031 44.3483C20.8831 49.5432 17.5064 54.5897 15.1777 59.0918C13.2638 62.792 12.0625 66.1142 11.6768 68.8418C11.2905 71.5738 11.7273 73.6687 13.0293 74.9707L13.2822 75.2051C14.5953 76.3245 16.5969 76.6853 19.1582 76.3232C21.8858 75.9375 25.208 74.7362 28.9082 72.8223C33.4103 70.4936 38.4559 67.1159 43.6507 62.896C43.7489 62.8162 43.7495 62.6664 43.6518 62.5861C40.487 59.9831 37.2736 57.0724 34.1006 53.8994C30.9272 50.726 28.0162 47.5123 25.4129 44.3472ZM62.896 44.3483C62.8162 44.2502 62.6664 44.2495 62.5861 44.3472C59.983 47.5122 57.0726 50.7262 53.8994 53.8994C50.7262 57.0726 47.5122 59.983 44.3472 62.5861C44.2495 62.6664 44.2502 62.8162 44.3483 62.896C49.5433 67.1161 54.5896 70.4935 59.0918 72.8223C62.792 74.7362 66.1142 75.9375 68.8418 76.3232C71.5738 76.7095 73.6687 76.2727 74.9707 74.9707C76.2727 73.6687 76.7095 71.5738 76.3232 68.8418C75.9375 66.1142 74.7362 62.792 72.8223 59.0918C70.4935 54.5896 67.1161 49.5433 62.896 44.3483ZM11.5489 15.4056C11.6018 15.1794 11.222 14.9488 11.0688 15.1234C4.30308 22.8327 0.200195 32.9368 0.200195 44C0.200195 55.0633 4.30355 65.1669 11.0694 72.8762C11.2226 73.0508 11.6022 72.8203 11.5493 72.5942C10.2052 66.8542 15.4784 55.8552 25.0251 44.1274C25.0851 44.0537 25.0851 43.9463 25.0251 43.8726C15.4784 32.1448 10.2048 21.1456 11.5489 15.4056ZM76.9305 15.1237C76.7773 14.9491 76.3974 15.1797 76.4503 15.4059C77.7945 21.1459 72.5209 32.1446 62.974 43.8726C62.914 43.9463 62.914 44.0537 62.974 44.1274C72.5209 55.8554 77.7941 66.8539 76.45 72.5938C76.397 72.82 76.7767 73.0505 76.9299 72.8759C83.6959 65.1667 87.7998 55.0634 87.7998 44C87.7998 32.9367 83.6964 22.833 76.9305 15.1237ZM44.1265 25.4904C44.0529 25.43 43.9471 25.43 43.8735 25.4904C40.6838 28.1086 37.4429 31.0415 34.2422 34.2422C31.0415 37.4429 28.1086 40.6838 25.4904 43.8735C25.43 43.9471 25.43 44.0529 25.4904 44.1265C28.1086 47.3162 31.0415 50.5571 34.2422 53.7578C37.4427 56.9584 40.6839 59.8906 43.8735 62.5086C43.9471 62.569 44.0529 62.569 44.1265 62.5086C47.3161 59.8906 50.5573 56.9584 53.7578 53.7578C56.9584 50.5573 59.8906 47.3161 62.5086 44.1265C62.569 44.0529 62.569 43.9471 62.5086 43.8735C59.8906 40.6839 56.9584 37.4427 53.7578 34.2422C50.5571 31.0415 47.3162 28.1086 44.1265 25.4904ZM19.1582 11.6768C16.4262 11.2905 14.3313 11.7273 13.0293 13.0293L12.7949 13.2822C11.6755 14.5953 11.3146 16.5969 11.6768 19.1582C12.0625 21.8858 13.2638 25.208 15.1777 28.9082C17.5063 33.4101 20.8833 38.4561 25.1031 43.6507C25.1828 43.7489 25.3326 43.7495 25.4129 43.6518C28.0161 40.4869 30.9274 37.2738 34.1006 34.1006C37.2738 30.9274 40.4869 28.0161 43.6518 25.4129C43.7495 25.3326 43.7489 25.1828 43.6507 25.1031C38.4561 20.8833 33.4101 17.5063 28.9082 15.1777C25.208 13.2638 21.8858 12.0625 19.1582 11.6768ZM74.9707 13.0293C73.6687 11.7273 71.5738 11.2905 68.8418 11.6768C66.1142 12.0625 62.792 13.2638 59.0918 15.1777C54.5897 17.5064 49.5431 20.8831 44.3483 25.1031C44.2502 25.1828 44.2495 25.3326 44.3472 25.4129C47.5123 28.0162 50.726 30.9272 53.8994 34.1006C57.0724 37.2736 59.9831 40.487 62.5861 43.6518C62.6664 43.7495 62.8162 43.7489 62.896 43.6507C67.1159 38.4559 70.4936 33.4103 72.8223 28.9082C74.7362 25.208 75.9375 21.8858 76.3232 19.1582C76.7095 16.4262 76.2727 14.3313 74.9707 13.0293ZM44 0.200195C32.9368 0.200195 22.8327 4.30307 15.1234 11.0688C14.9488 11.222 15.1794 11.6018 15.4056 11.5489C21.1456 10.2048 32.1448 15.4784 43.8726 25.0251C43.9463 25.0851 44.0537 25.0851 44.1274 25.0251C55.8552 15.4784 66.8542 10.2052 72.5942 11.5493C72.8203 11.6022 73.0508 11.2226 72.8762 11.0694C65.1669 4.30355 55.0633 0.200195 44 0.200195Z" fill="#FF3131"/>
</svg>
