<svg width="179" height="155" viewBox="0 0 179 155" fill="none" xmlns="http://www.w3.org/2000/svg">
<g filter="url(#filter0_dddd_2053_7)">
<path d="M89.4014 4.58038C89.4203 4.46937 89.5797 4.46938 89.5986 4.58038L96.7295 46.5596C96.7434 46.6417 96.8458 46.6718 96.902 46.6102L125.597 15.1503C125.672 15.0671 125.807 15.1534 125.762 15.2569L109.066 54.4273C109.033 54.504 109.103 54.5846 109.183 54.5632L150.331 43.6109C150.44 43.5819 150.506 43.727 150.413 43.7903L115.19 67.7156C115.121 67.7624 115.136 67.868 115.215 67.8935L155.753 80.9261C155.86 80.9605 155.837 81.1184 155.724 81.1212L113.158 82.2053C113.074 82.2074 113.03 82.3045 113.083 82.3688L140.139 115.249C140.211 115.335 140.106 115.456 140.01 115.398L103.614 93.2962C103.543 93.2529 103.453 93.3106 103.463 93.3934L108.448 135.681C108.461 135.793 108.308 135.838 108.259 135.737L89.5899 97.4669C89.5534 97.3921 89.4466 97.3921 89.4101 97.4669L70.7412 135.737C70.6918 135.838 70.5388 135.793 70.552 135.681L75.5368 93.3934C75.5466 93.3106 75.4568 93.2529 75.3856 93.2962L38.9901 115.398C38.8938 115.456 38.7894 115.335 38.861 115.249L65.917 82.3688C65.9699 82.3045 65.9256 82.2074 65.8423 82.2053L23.2756 81.1212C23.163 81.1184 23.1403 80.9605 23.2475 80.9261L63.7846 67.8935C63.8639 67.868 63.8791 67.7624 63.8102 67.7156L28.5868 43.7903C28.4937 43.727 28.5599 43.5819 28.6687 43.6109L69.8166 54.5632C69.8971 54.5846 69.967 54.504 69.9343 54.4273L53.2376 15.2569C53.1934 15.1534 53.3276 15.0671 53.4035 15.1503L82.098 46.6102C82.1542 46.6718 82.2565 46.6417 82.2705 46.5596L89.4014 4.58038Z" fill="#E3DFDF"/>
<path d="M89.4014 4.58038C89.4203 4.46937 89.5797 4.46938 89.5986 4.58038L96.7295 46.5596C96.7434 46.6417 96.8458 46.6718 96.902 46.6102L125.597 15.1503C125.672 15.0671 125.807 15.1534 125.762 15.2569L109.066 54.4273C109.033 54.504 109.103 54.5846 109.183 54.5632L150.331 43.6109C150.44 43.5819 150.506 43.727 150.413 43.7903L115.19 67.7156C115.121 67.7624 115.136 67.868 115.215 67.8935L155.753 80.9261C155.86 80.9605 155.837 81.1184 155.724 81.1212L113.158 82.2053C113.074 82.2074 113.03 82.3045 113.083 82.3688L140.139 115.249C140.211 115.335 140.106 115.456 140.01 115.398L103.614 93.2962C103.543 93.2529 103.453 93.3106 103.463 93.3934L108.448 135.681C108.461 135.793 108.308 135.838 108.259 135.737L89.5899 97.4669C89.5534 97.3921 89.4466 97.3921 89.4101 97.4669L70.7412 135.737C70.6918 135.838 70.5388 135.793 70.552 135.681L75.5368 93.3934C75.5466 93.3106 75.4568 93.2529 75.3856 93.2962L38.9901 115.398C38.8938 115.456 38.7894 115.335 38.861 115.249L65.917 82.3688C65.9699 82.3045 65.9256 82.2074 65.8423 82.2053L23.2756 81.1212C23.163 81.1184 23.1403 80.9605 23.2475 80.9261L63.7846 67.8935C63.8639 67.868 63.8791 67.7624 63.8102 67.7156L28.5868 43.7903C28.4937 43.727 28.5599 43.5819 28.6687 43.6109L69.8166 54.5632C69.8971 54.5846 69.967 54.504 69.9343 54.4273L53.2376 15.2569C53.1934 15.1534 53.3276 15.0671 53.4035 15.1503L82.098 46.6102C82.1542 46.6718 82.2565 46.6417 82.2705 46.5596L89.4014 4.58038Z" stroke="#FF3131" stroke-opacity="0.1" stroke-width="0.2"/>
</g>
<g filter="url(#filter1_ddi_2053_7)">
<path d="M89.4014 38.5804C89.4203 38.4694 89.5797 38.4694 89.5986 38.5804L93.0707 59.0204C93.0846 59.1025 93.187 59.1326 93.2432 59.071L107.215 43.753C107.291 43.6698 107.425 43.756 107.381 43.8596L99.2508 62.9319C99.2182 63.0086 99.2881 63.0892 99.3686 63.0678L119.404 57.735C119.513 57.7061 119.579 57.8511 119.486 57.9144L102.335 69.5638C102.266 69.6106 102.281 69.7162 102.361 69.7417L122.099 76.0874C122.206 76.1218 122.183 76.2797 122.071 76.2825L101.344 76.8104C101.261 76.8125 101.217 76.9096 101.27 76.9739L114.444 92.9833C114.515 93.0702 114.411 93.1907 114.314 93.1323L96.5932 82.371C96.522 82.3277 96.4322 82.3854 96.442 82.4681L98.8691 103.058C98.8823 103.17 98.7293 103.215 98.6799 103.114L89.5899 84.4801C89.5533 84.4052 89.4467 84.4052 89.4101 84.4801L80.3201 103.114C80.2707 103.215 80.1177 103.17 80.1309 103.058L82.558 82.4681C82.5678 82.3854 82.478 82.3277 82.4068 82.371L64.6856 93.1323C64.5893 93.1907 64.4849 93.0702 64.5564 92.9833L77.7302 76.9739C77.7832 76.9096 77.7388 76.8125 77.6555 76.8104L56.9295 76.2825C56.8169 76.2797 56.7942 76.1218 56.9014 76.0874L76.6392 69.7417C76.7185 69.7162 76.7337 69.6106 76.6648 69.5638L59.5143 57.9144C59.4212 57.8511 59.4874 57.7061 59.5962 57.735L79.6314 63.0678C79.7119 63.0892 79.7818 63.0086 79.7492 62.9319L71.6194 43.8596C71.5752 43.756 71.7094 43.6698 71.7852 43.753L85.7568 59.071C85.813 59.1326 85.9154 59.1025 85.9293 59.0204L89.4014 38.5804Z" fill="url(#paint0_linear_2053_7)" fill-opacity="0.5" shape-rendering="crispEdges"/>
<path d="M89.4014 38.5804C89.4203 38.4694 89.5797 38.4694 89.5986 38.5804L93.0707 59.0204C93.0846 59.1025 93.187 59.1326 93.2432 59.071L107.215 43.753C107.291 43.6698 107.425 43.756 107.381 43.8596L99.2508 62.9319C99.2182 63.0086 99.2881 63.0892 99.3686 63.0678L119.404 57.735C119.513 57.7061 119.579 57.8511 119.486 57.9144L102.335 69.5638C102.266 69.6106 102.281 69.7162 102.361 69.7417L122.099 76.0874C122.206 76.1218 122.183 76.2797 122.071 76.2825L101.344 76.8104C101.261 76.8125 101.217 76.9096 101.27 76.9739L114.444 92.9833C114.515 93.0702 114.411 93.1907 114.314 93.1323L96.5932 82.371C96.522 82.3277 96.4322 82.3854 96.442 82.4681L98.8691 103.058C98.8823 103.17 98.7293 103.215 98.6799 103.114L89.5899 84.4801C89.5533 84.4052 89.4467 84.4052 89.4101 84.4801L80.3201 103.114C80.2707 103.215 80.1177 103.17 80.1309 103.058L82.558 82.4681C82.5678 82.3854 82.478 82.3277 82.4068 82.371L64.6856 93.1323C64.5893 93.1907 64.4849 93.0702 64.5564 92.9833L77.7302 76.9739C77.7832 76.9096 77.7388 76.8125 77.6555 76.8104L56.9295 76.2825C56.8169 76.2797 56.7942 76.1218 56.9014 76.0874L76.6392 69.7417C76.7185 69.7162 76.7337 69.6106 76.6648 69.5638L59.5143 57.9144C59.4212 57.8511 59.4874 57.7061 59.5962 57.735L79.6314 63.0678C79.7119 63.0892 79.7818 63.0086 79.7492 62.9319L71.6194 43.8596C71.5752 43.756 71.7094 43.6698 71.7852 43.753L85.7568 59.071C85.813 59.1326 85.9154 59.1025 85.9293 59.0204L89.4014 38.5804Z" stroke="#8E8986" stroke-opacity="0.3" stroke-width="0.2" shape-rendering="crispEdges"/>
</g>
<defs>
<filter id="filter0_dddd_2053_7" x="0.0779419" y="0.397125" width="178.844" height="214.496" filterUnits="userSpaceOnUse" color-interpolation-filters="sRGB">
<feFlood flood-opacity="0" result="BackgroundImageFix"/>
<feColorMatrix in="SourceAlpha" type="matrix" values="0 0 0 0 0 0 0 0 0 0 0 0 0 0 0 0 0 0 127 0" result="hardAlpha"/>
<feOffset dy="4"/>
<feGaussianBlur stdDeviation="4"/>
<feColorMatrix type="matrix" values="0 0 0 0 0 0 0 0 0 0 0 0 0 0 0 0 0 0 0.1 0"/>
<feBlend mode="normal" in2="BackgroundImageFix" result="effect1_dropShadow_2053_7"/>
<feColorMatrix in="SourceAlpha" type="matrix" values="0 0 0 0 0 0 0 0 0 0 0 0 0 0 0 0 0 0 127 0" result="hardAlpha"/>
<feOffset dy="14"/>
<feGaussianBlur stdDeviation="7"/>
<feColorMatrix type="matrix" values="0 0 0 0 0 0 0 0 0 0 0 0 0 0 0 0 0 0 0.09 0"/>
<feBlend mode="normal" in2="effect1_dropShadow_2053_7" result="effect2_dropShadow_2053_7"/>
<feColorMatrix in="SourceAlpha" type="matrix" values="0 0 0 0 0 0 0 0 0 0 0 0 0 0 0 0 0 0 127 0" result="hardAlpha"/>
<feOffset dy="32"/>
<feGaussianBlur stdDeviation="9.5"/>
<feColorMatrix type="matrix" values="0 0 0 0 0 0 0 0 0 0 0 0 0 0 0 0 0 0 0.05 0"/>
<feBlend mode="normal" in2="effect2_dropShadow_2053_7" result="effect3_dropShadow_2053_7"/>
<feColorMatrix in="SourceAlpha" type="matrix" values="0 0 0 0 0 0 0 0 0 0 0 0 0 0 0 0 0 0 127 0" result="hardAlpha"/>
<feOffset dy="56"/>
<feGaussianBlur stdDeviation="11.5"/>
<feColorMatrix type="matrix" values="0 0 0 0 0 0 0 0 0 0 0 0 0 0 0 0 0 0 0.01 0"/>
<feBlend mode="normal" in2="effect3_dropShadow_2053_7" result="effect4_dropShadow_2053_7"/>
<feBlend mode="normal" in="SourceGraphic" in2="effect4_dropShadow_2053_7" result="shape"/>
</filter>
<filter id="filter1_ddi_2053_7" x="50.7319" y="31.9971" width="77.9363" height="77.2735" filterUnits="userSpaceOnUse" color-interpolation-filters="sRGB">
<feFlood flood-opacity="0" result="BackgroundImageFix"/>
<feColorMatrix in="SourceAlpha" type="matrix" values="0 0 0 0 0 0 0 0 0 0 0 0 0 0 0 0 0 0 127 0" result="hardAlpha"/>
<feOffset dx="0.3" dy="-0.3"/>
<feGaussianBlur stdDeviation="0.85"/>
<feComposite in2="hardAlpha" operator="out"/>
<feColorMatrix type="matrix" values="0 0 0 0 1 0 0 0 0 1 0 0 0 0 1 0 0 0 1 0"/>
<feBlend mode="normal" in2="BackgroundImageFix" result="effect1_dropShadow_2053_7"/>
<feColorMatrix in="SourceAlpha" type="matrix" values="0 0 0 0 0 0 0 0 0 0 0 0 0 0 0 0 0 0 127 0" result="hardAlpha"/>
<feOffset dx="0.2" dy="-0.2"/>
<feGaussianBlur stdDeviation="3.1"/>
<feComposite in2="hardAlpha" operator="out"/>
<feColorMatrix type="matrix" values="0 0 0 0 1 0 0 0 0 1 0 0 0 0 1 0 0 0 1 0"/>
<feBlend mode="normal" in2="effect1_dropShadow_2053_7" result="effect2_dropShadow_2053_7"/>
<feBlend mode="normal" in="SourceGraphic" in2="effect2_dropShadow_2053_7" result="shape"/>
<feColorMatrix in="SourceAlpha" type="matrix" values="0 0 0 0 0 0 0 0 0 0 0 0 0 0 0 0 0 0 127 0" result="hardAlpha"/>
<feOffset dx="0.2" dy="0.3"/>
<feGaussianBlur stdDeviation="0.5"/>
<feComposite in2="hardAlpha" operator="arithmetic" k2="-1" k3="1"/>
<feColorMatrix type="matrix" values="0 0 0 0 0.369954 0 0 0 0 0.368286 0 0 0 0 0.368286 0 0 0 1 0"/>
<feBlend mode="normal" in2="shape" result="effect3_innerShadow_2053_7"/>
</filter>
<linearGradient id="paint0_linear_2053_7" x1="89.5" y1="38" x2="89.5" y2="105" gradientUnits="userSpaceOnUse">
<stop offset="0.427493" stop-color="#E3DFDF"/>
<stop offset="1" stop-color="white"/>
</linearGradient>
</defs>
</svg>
