<svg width="90" height="29" viewBox="0 0 90 29" fill="none" xmlns="http://www.w3.org/2000/svg">
<path d="M9.6582 0.634766H16.2012V0.996094C15.8496 0.996094 15.5599 1.03516 15.332 1.11328C15.1107 1.1849 14.9349 1.28581 14.8047 1.41602C14.681 1.53971 14.5964 1.68294 14.5508 1.8457C14.5052 2.00846 14.4824 2.18099 14.4824 2.36328V12.9199C14.4824 13.0501 14.502 13.1934 14.541 13.3496C14.5866 13.5059 14.668 13.6523 14.7852 13.7891C14.9089 13.9258 15.0814 14.043 15.3027 14.1406C15.5306 14.2318 15.8301 14.2773 16.2012 14.2773V14.6387H11.3867V13.1738C11.1523 13.4277 10.8952 13.6686 10.6152 13.8965C10.3353 14.1178 10.0228 14.3132 9.67773 14.4824C9.33919 14.6517 8.9681 14.7852 8.56445 14.8828C8.16081 14.987 7.72135 15.0391 7.24609 15.0391C6.66016 15.0391 6.07422 14.9772 5.48828 14.8535C4.90234 14.7298 4.33919 14.5443 3.79883 14.2969C3.26497 14.0495 2.76693 13.7435 2.30469 13.3789C1.84245 13.0078 1.4388 12.5814 1.09375 12.0996C0.755208 11.6113 0.488281 11.0645 0.292969 10.459C0.0976562 9.847 0 9.17969 0 8.45703C0 7.67578 0.0878906 6.95638 0.263672 6.29883C0.445964 5.63477 0.683594 5.03255 0.976562 4.49219C1.27604 3.94531 1.61458 3.45703 1.99219 3.02734C2.36979 2.59115 2.75716 2.20703 3.1543 1.875C4.08529 1.09375 5.13997 0.46875 6.31836 0L6.58203 0.234375C6.55599 0.253906 6.46159 0.338542 6.29883 0.488281C6.13607 0.638021 5.9375 0.859375 5.70312 1.15234C5.46875 1.44531 5.2181 1.81641 4.95117 2.26562C4.68424 2.70833 4.43685 3.23893 4.20898 3.85742C3.98112 4.47591 3.79232 5.18555 3.64258 5.98633C3.49284 6.78711 3.41797 7.68555 3.41797 8.68164C3.41797 9.62565 3.51888 10.4525 3.7207 11.1621C3.92904 11.8652 4.21549 12.4544 4.58008 12.9297C4.94466 13.3984 5.37435 13.75 5.86914 13.9844C6.37044 14.2188 6.91406 14.3359 7.5 14.3359C8.02734 14.3359 8.52539 14.235 8.99414 14.0332C9.46289 13.8314 9.87305 13.5482 10.2246 13.1836C10.5827 12.819 10.8659 12.3861 11.0742 11.8848C11.2826 11.377 11.3867 10.8203 11.3867 10.2148V2.36328C11.3867 2.23307 11.3639 2.08984 11.3184 1.93359C11.2793 1.77083 11.1979 1.62109 11.0742 1.48438C10.957 1.34766 10.7845 1.23372 10.5566 1.14258C10.3288 1.04492 10.0293 0.996094 9.6582 0.996094V0.634766Z" fill="#FF3131"/>
<path d="M27.7539 14.6387H21.2109V14.2773C21.569 14.2773 21.8587 14.2415 22.0801 14.1699C22.3014 14.0918 22.474 13.9909 22.5977 13.8672C22.7279 13.7435 22.8158 13.6003 22.8613 13.4375C22.9069 13.2747 22.9297 13.1022 22.9297 12.9199V1.39648H21.6895C21.3444 1.39648 20.9798 1.42578 20.5957 1.48438C20.2181 1.53646 19.8405 1.64388 19.4629 1.80664C19.0853 1.96289 18.7207 2.18099 18.3691 2.46094C18.0176 2.74089 17.6986 3.10547 17.4121 3.55469L17.0117 3.49609C17.1875 3.22266 17.321 2.92318 17.4121 2.59766C17.5098 2.26562 17.5846 1.95312 17.6367 1.66016C17.6888 1.32161 17.7214 0.979818 17.7344 0.634766H31.3477C31.2565 0.817057 31.1849 1.00586 31.1328 1.20117C31.0807 1.39648 31.0384 1.5918 31.0059 1.78711C30.9733 1.97591 30.9505 2.1582 30.9375 2.33398C30.931 2.50326 30.9277 2.65299 30.9277 2.7832C30.9277 2.85482 30.9277 2.91992 30.9277 2.97852C30.9277 3.0306 30.931 3.07617 30.9375 3.11523C30.944 3.16081 30.9505 3.20312 30.957 3.24219L30.5957 3.30078C30.5697 3.00781 30.485 2.75716 30.3418 2.54883C30.2051 2.34049 30.0326 2.16797 29.8242 2.03125C29.6224 1.88802 29.3978 1.77409 29.1504 1.68945C28.903 1.60482 28.6589 1.54297 28.418 1.50391C28.1836 1.45833 27.9622 1.42904 27.7539 1.41602C27.5456 1.40299 27.3796 1.39648 27.2559 1.39648H26.0352V12.9199C26.0352 13.0501 26.0547 13.1934 26.0938 13.3496C26.1328 13.5059 26.2142 13.6523 26.3379 13.7891C26.4616 13.9258 26.6341 14.043 26.8555 14.1406C27.0833 14.2318 27.3828 14.2773 27.7539 14.2773V14.6387Z" fill="#FF3131"/>
<path d="M32.0703 7.63672C32.0703 7.09635 32.1452 6.54297 32.2949 5.97656C32.4447 5.40365 32.666 4.85352 32.959 4.32617C33.252 3.79232 33.6133 3.29102 34.043 2.82227C34.4792 2.34701 34.9772 1.93359 35.5371 1.58203C36.1035 1.23047 36.735 0.953776 37.4316 0.751953C38.1283 0.54362 38.8835 0.439453 39.6973 0.439453C40.5371 0.439453 41.3086 0.533854 42.0117 0.722656C42.7214 0.911458 43.3594 1.17188 43.9258 1.50391C44.4987 1.83594 45 2.22982 45.4297 2.68555C45.8659 3.14128 46.2272 3.63607 46.5137 4.16992C46.8066 4.69727 47.0247 5.25716 47.168 5.84961C47.3177 6.44206 47.3926 7.03776 47.3926 7.63672C47.3926 8.20964 47.3177 8.78906 47.168 9.375C47.0247 9.96094 46.8066 10.5273 46.5137 11.0742C46.2272 11.6211 45.8659 12.1354 45.4297 12.6172C45 13.099 44.4987 13.5189 43.9258 13.877C43.3594 14.235 42.7214 14.5182 42.0117 14.7266C41.3086 14.9349 40.5371 15.0391 39.6973 15.0391C38.8704 15.0391 38.1087 14.9349 37.4121 14.7266C36.7155 14.5247 36.084 14.2448 35.5176 13.8867C34.9577 13.5286 34.4629 13.1087 34.0332 12.627C33.6035 12.1452 33.2422 11.6309 32.9492 11.084C32.6562 10.5371 32.4349 9.9707 32.2852 9.38477C32.1419 8.79232 32.0703 8.20964 32.0703 7.63672ZM35.4297 7.59766C35.4297 8.15104 35.459 8.69792 35.5176 9.23828C35.5827 9.77865 35.6836 10.2962 35.8203 10.791C35.957 11.2793 36.1328 11.735 36.3477 12.1582C36.569 12.5749 36.8359 12.9395 37.1484 13.252C37.4609 13.5645 37.8223 13.8118 38.2324 13.9941C38.6426 14.1764 39.1081 14.2708 39.6289 14.2773C40.1497 14.2773 40.6217 14.1862 41.0449 14.0039C41.4681 13.8151 41.8424 13.5612 42.168 13.2422C42.4935 12.9232 42.7734 12.5488 43.0078 12.1191C43.2422 11.6895 43.4375 11.2337 43.5938 10.752C43.75 10.2637 43.8639 9.75911 43.9355 9.23828C44.0137 8.71094 44.0592 8.19661 44.0723 7.69531C44.0723 7.18099 44.0397 6.66341 43.9746 6.14258C43.916 5.62174 43.8151 5.1237 43.6719 4.64844C43.5352 4.16667 43.3561 3.71745 43.1348 3.30078C42.9134 2.88411 42.6432 2.52279 42.3242 2.2168C42.0052 1.9043 41.6374 1.66016 41.2207 1.48438C40.804 1.30859 40.3288 1.2207 39.7949 1.2207C39.2741 1.2207 38.8053 1.29883 38.3887 1.45508C37.9785 1.61133 37.6107 1.83268 37.2852 2.11914C36.9661 2.4056 36.6895 2.74414 36.4551 3.13477C36.2272 3.52539 36.0384 3.95833 35.8887 4.43359C35.7389 4.90885 35.625 5.41341 35.5469 5.94727C35.4753 6.48112 35.4362 7.03125 35.4297 7.59766Z" fill="#FF3131"/>
<path d="M64.0234 7.23633C64.0234 8.2845 63.8346 9.2806 63.457 10.2246C63.0794 11.1621 62.5326 11.9889 61.8164 12.7051C61.1003 13.4212 60.2246 13.9909 59.1895 14.4141C58.1543 14.8307 56.9792 15.0391 55.6641 15.0391C55.332 15.0391 55.0033 15.0195 54.6777 14.9805C54.3522 14.9479 54.0332 14.8861 53.7207 14.7949V16.8555C53.7207 17.0117 53.6654 24.6868 53.5547 24.8691C53.4505 25.0514 53.3105 25.2467 53.1348 25.4551C52.9655 25.6699 52.7702 25.8978 52.5488 26.1387C52.3275 26.3861 52.0996 26.6465 51.8652 26.9199C51.6374 27.1934 51.416 27.4798 51.2012 27.7793C50.9863 28.0853 50.7943 28.4076 50.625 28.7461V2.27539C50.625 2.14518 50.599 2.00521 50.5469 1.85547C50.5013 1.70573 50.4134 1.56901 50.2832 1.44531C50.1595 1.3151 49.987 1.20768 49.7656 1.12305C49.5443 1.03841 49.2578 0.996094 48.9062 0.996094V0.634766H53.7207C54.1243 0.634766 54.5801 0.647786 55.0879 0.673828C55.6022 0.69987 56.1393 0.751953 56.6992 0.830078C57.2591 0.901693 57.8288 1.00911 58.4082 1.15234C58.9876 1.28906 59.5475 1.47135 60.0879 1.69922C60.6283 1.92057 61.1361 2.19401 61.6113 2.51953C62.0931 2.84505 62.513 3.23242 62.8711 3.68164C63.2292 4.13086 63.5091 4.64844 63.7109 5.23438C63.9193 5.82031 64.0234 6.48763 64.0234 7.23633ZM60.8203 7.97852C60.8203 7.09961 60.7064 6.33138 60.4785 5.67383C60.2507 5.01628 59.9447 4.44661 59.5605 3.96484C59.1829 3.48307 58.7467 3.08268 58.252 2.76367C57.7637 2.44466 57.2559 2.1875 56.7285 1.99219C56.2077 1.79036 55.6836 1.64388 55.1562 1.55273C54.6354 1.45508 54.1569 1.38997 53.7207 1.35742V13.877C54.0853 14.0788 54.4824 14.2122 54.9121 14.2773C55.3418 14.3424 55.752 14.375 56.1426 14.375C56.7546 14.375 57.2949 14.2773 57.7637 14.082C58.2389 13.8867 58.6491 13.6263 58.9941 13.3008C59.3392 12.9688 59.6289 12.5879 59.8633 12.1582C60.0977 11.722 60.2832 11.2663 60.4199 10.791C60.5632 10.3158 60.6641 9.83724 60.7227 9.35547C60.7878 8.8737 60.8203 8.41471 60.8203 7.97852Z" fill="#FF3131"/>
<path d="M72.207 14.6387H65.6641V14.2773C66.0156 14.2773 66.3021 14.2415 66.5234 14.1699C66.7513 14.0918 66.9271 13.9909 67.0508 13.8672C67.181 13.7435 67.2689 13.6003 67.3145 13.4375C67.36 13.2747 67.3828 13.1022 67.3828 12.9199V2.27539C67.3828 2.14518 67.3568 2.00521 67.3047 1.85547C67.2591 1.70573 67.1712 1.56901 67.041 1.44531C66.9173 1.3151 66.7448 1.20768 66.5234 1.12305C66.3021 1.03841 66.0156 0.996094 65.6641 0.996094V0.634766H72.207V0.996094C71.849 0.996094 71.556 1.03516 71.3281 1.11328C71.1068 1.1849 70.931 1.28581 70.8008 1.41602C70.6771 1.53971 70.5924 1.68294 70.5469 1.8457C70.5013 2.00846 70.4785 2.18099 70.4785 2.36328V12.9199C70.4785 13.0501 70.498 13.1934 70.5371 13.3496C70.5827 13.5059 70.6641 13.6523 70.7812 13.7891C70.9049 13.9258 71.0807 14.043 71.3086 14.1406C71.5365 14.2318 71.8359 14.2773 72.207 14.2773V14.6387Z" fill="#FF3131"/>
<path d="M89.9902 14.1211C89.3978 14.362 88.8574 14.5247 88.3691 14.6094C87.8809 14.694 87.4414 14.7363 87.0508 14.7363C86.7383 14.7363 86.4681 14.7168 86.2402 14.6777C86.0124 14.6452 85.8171 14.6029 85.6543 14.5508C85.4655 14.4922 85.3027 14.4271 85.166 14.3555C84.8796 14.1927 84.6289 13.9811 84.4141 13.7207C84.1992 13.4603 84.0039 13.1803 83.8281 12.8809C83.6589 12.5814 83.5059 12.2721 83.3691 11.9531C83.2324 11.6341 83.099 11.3346 82.9688 11.0547L82.7246 10.5371C82.0671 10.7259 81.4518 10.944 80.8789 11.1914C80.3125 11.4323 79.8079 11.6732 79.3652 11.9141C78.9225 12.1484 78.5482 12.3665 78.2422 12.5684C77.9427 12.7637 77.7311 12.9069 77.6074 12.998C77.3665 13.265 77.0964 13.5026 76.7969 13.7109C76.4974 13.9193 76.1621 14.0983 75.791 14.248C75.4199 14.3913 75.0065 14.502 74.5508 14.5801C74.0951 14.6582 73.5938 14.6973 73.0469 14.6973L72.9492 14.2773C73.5807 14.1732 74.1244 13.9714 74.5801 13.6719C75.0423 13.3724 75.4395 13.0046 75.7715 12.5684C76.1035 12.1257 76.3867 11.6309 76.6211 11.084C76.8555 10.5306 77.0638 9.94792 77.2461 9.33594C77.3503 8.98438 77.487 8.61328 77.6562 8.22266C77.832 7.83203 78.0404 7.45443 78.2812 7.08984C78.5286 6.71875 78.8086 6.3737 79.1211 6.05469C79.4401 5.72917 79.8014 5.45573 80.2051 5.23438C80.0944 5.02604 79.9837 4.81445 79.873 4.59961C79.7689 4.37826 79.668 4.1569 79.5703 3.93555C79.4336 3.67513 79.2969 3.38867 79.1602 3.07617C79.0234 2.75716 78.8607 2.46419 78.6719 2.19727C78.4896 1.92383 78.2715 1.69596 78.0176 1.51367C77.7702 1.33138 77.4609 1.24023 77.0898 1.24023C76.8294 1.24023 76.5723 1.26953 76.3184 1.32812C76.071 1.38672 75.8333 1.45833 75.6055 1.54297L75.4688 1.14258C76.0352 0.953776 76.6081 0.794271 77.1875 0.664062C77.7734 0.527344 78.3529 0.458984 78.9258 0.458984C79.1992 0.458984 79.4694 0.478516 79.7363 0.517578C80.0033 0.55013 80.2604 0.611979 80.5078 0.703125C80.7227 0.78125 80.931 0.911458 81.1328 1.09375C81.3346 1.26953 81.5267 1.48112 81.709 1.72852C81.8913 1.9694 82.0605 2.22982 82.2168 2.50977C82.3796 2.78971 82.5293 3.06966 82.666 3.34961C82.8092 3.62956 82.9362 3.89648 83.0469 4.15039C83.1641 4.39779 83.265 4.61263 83.3496 4.79492C83.9225 6.02539 84.4922 7.25911 85.0586 8.49609C85.625 9.72656 86.2337 10.9408 86.8848 12.1387C87.002 12.3535 87.1256 12.5651 87.2559 12.7734C87.3926 12.9818 87.5423 13.1673 87.7051 13.3301C87.8744 13.4928 88.0599 13.623 88.2617 13.7207C88.4635 13.8184 88.6914 13.8639 88.9453 13.8574C89.0365 13.8574 89.1602 13.8477 89.3164 13.8281C89.4792 13.8086 89.4718 13.0762 89.6606 12.998L89.9902 14.1211ZM80.752 6.35742C80.5827 6.63086 80.4264 6.91406 80.2832 7.20703C80.1465 7.5 80.0195 7.79948 79.9023 8.10547C79.7852 8.40495 79.6777 8.70443 79.5801 9.00391C79.4824 9.30339 79.3848 9.58984 79.2871 9.86328C79.1895 10.1628 79.082 10.4557 78.9648 10.7422C78.8542 11.0221 78.7272 11.2956 78.584 11.5625C79.0723 11.276 79.6452 10.9766 80.3027 10.6641C80.9603 10.3516 81.6634 10.0846 82.4121 9.86328L80.752 6.35742Z" fill="#FF3131"/>
</svg>
